HIERARCHY
ROOT Hips
{
	OFFSET	0.00	0.00	0.00
	CHANNELS 6 Xposition Yposition Zposition Zrotation Xrotation Yrotation
	JOINT Spine
	{
		OFFSET	 0.000000	 0.052128	 0.009727
		CHANNELS 3 Zrotation Xrotation Yrotation
		JOINT Chest
		{
			OFFSET	 0.000000	 0.110886	 0.014510
			CHANNELS 3 Zrotation Xrotation Yrotation
			JOINT UpperChest
			{
				OFFSET	-0.000000	 0.124285	-0.013313
				CHANNELS 3 Zrotation Xrotation Yrotation
				JOINT Neck
				{
					OFFSET	-0.000000	 0.114615	-0.033396
					CHANNELS 3 Zrotation Xrotation Yrotation
					JOINT Head
					{
						OFFSET	 0.000000	 0.073770	 0.009335
						CHANNELS 3 Zrotation Xrotation Yrotation
						JOINT LeftEye
						{
							OFFSET	 0.020036	 0.059252	 0.028383
							CHANNELS 3 Zrotation Xrotation Yrotation
							End Site
							{
								OFFSET	 0.020036	 0.059252	 0.028383
							}
						}
						JOINT RightEye
						{
							OFFSET	-0.020036	 0.059252	 0.028383
							CHANNELS 3 Zrotation Xrotation Yrotation
							End Site
							{
								OFFSET	-0.020036	 0.059252	 0.028383
							}
						}
					}
				}
				JOINT LeftShoulder
				{
					OFFSET	 0.022386	 0.087264	-0.027443
					CHANNELS 3 Zrotation Xrotation Yrotation
					JOINT LeftUpperArm
					{
						OFFSET	 0.086295	-0.014869	 0.005364
						CHANNELS 3 Zrotation Xrotation Yrotation
						JOINT LeftLowerArm
						{
							OFFSET	 0.210165	-0.009786	 0.001763
							CHANNELS 3 Zrotation Xrotation Yrotation
							JOINT LeftHand
							{
								OFFSET	 0.204753	-0.000446	 0.016902
								CHANNELS 3 Zrotation Xrotation Yrotation
								JOINT LeftIndexProximal
								{
									OFFSET	 0.063906	 0.005562	 0.021442
									CHANNELS 3 Zrotation Xrotation Yrotation
									JOINT LeftIndexIntermediate
									{
										OFFSET	 0.032821	-0.000134	 0.005149
										CHANNELS 3 Zrotation Xrotation Yrotation
										JOINT LeftIndexDistal
										{
											OFFSET	 0.020314	-0.000674	 0.002301
											CHANNELS 3 Zrotation Xrotation Yrotation
											End Site
											{
												OFFSET	 0.020314	-0.000674	 0.002301
											}
										}
									}
								}
								JOINT LeftLittleProximal
								{
									OFFSET	 0.063261	 0.003125	-0.026793
									CHANNELS 3 Zrotation Xrotation Yrotation
									JOINT LeftLittleIntermediate
									{
										OFFSET	 0.031398	-0.000273	 0.000022
										CHANNELS 3 Zrotation Xrotation Yrotation
										JOINT LeftLittleDistal
										{
											OFFSET	 0.018059	 0.000679	-0.000943
											CHANNELS 3 Zrotation Xrotation Yrotation
											End Site
											{
												OFFSET	 0.018059	 0.000679	-0.000943
											}
										}
									}
								}
								JOINT LeftMiddleProximal
								{
									OFFSET	 0.066112	 0.008373	 0.004780
									CHANNELS 3 Zrotation Xrotation Yrotation
									JOINT LeftMiddleIntermediate
									{
										OFFSET	 0.036901	-0.001349	 0.002438
										CHANNELS 3 Zrotation Xrotation Yrotation
										JOINT LeftMiddleDistal
										{
											OFFSET	 0.022683	-0.002405	 0.000937
											CHANNELS 3 Zrotation Xrotation Yrotation
											End Site
											{
												OFFSET	 0.022683	-0.002405	 0.000937
											}
										}
									}
								}
								JOINT LeftRingProximal
								{
									OFFSET	 0.066681	 0.008306	-0.010961
									CHANNELS 3 Zrotation Xrotation Yrotation
									JOINT LeftRingIntermediate
									{
										OFFSET	 0.034323	-0.000538	 0.000172
										CHANNELS 3 Zrotation Xrotation Yrotation
										JOINT LeftRingDistal
										{
											OFFSET	 0.019797	 0.000700	 0.000249
											CHANNELS 3 Zrotation Xrotation Yrotation
											End Site
											{
												OFFSET	 0.019797	 0.000700	 0.000249
											}
										}
									}
								}
								JOINT LeftThumbProximal
								{
									OFFSET	 0.002032	-0.006912	 0.017734
									CHANNELS 3 Zrotation Xrotation Yrotation
									JOINT LeftThumbIntermediate
									{
										OFFSET	 0.032287	-0.002701	 0.033401
										CHANNELS 3 Zrotation Xrotation Yrotation
										JOINT LeftThumbDistal
										{
											OFFSET	 0.021324	-0.001512	 0.019035
											CHANNELS 3 Zrotation Xrotation Yrotation
											End Site
											{
												OFFSET	 0.021324	-0.001512	 0.019035
											}
										}
									}
								}
							}
						}
					}
				}
				JOINT RightShoulder
				{
					OFFSET	-0.022386	 0.087267	-0.027443
					CHANNELS 3 Zrotation Xrotation Yrotation
					JOINT RightUpperArm
					{
						OFFSET	-0.086294	-0.014870	 0.005364
						CHANNELS 3 Zrotation Xrotation Yrotation
						JOINT RightLowerArm
						{
							OFFSET	-0.210167	-0.009788	 0.001763
							CHANNELS 3 Zrotation Xrotation Yrotation
							JOINT RightHand
							{
								OFFSET	-0.204752	-0.000445	 0.016902
								CHANNELS 3 Zrotation Xrotation Yrotation
								JOINT RightIndexProximal
								{
									OFFSET	-0.063906	 0.005562	 0.021442
									CHANNELS 3 Zrotation Xrotation Yrotation
									JOINT RightIndexIntermediate
									{
										OFFSET	-0.032821	-0.000134	 0.005149
										CHANNELS 3 Zrotation Xrotation Yrotation
										JOINT RightIndexDistal
										{
											OFFSET	-0.020314	-0.000674	 0.002302
											CHANNELS 3 Zrotation Xrotation Yrotation
											End Site
											{
												OFFSET	-0.020314	-0.000674	 0.002302
											}
										}
									}
								}
								JOINT RightLittleProximal
								{
									OFFSET	-0.063261	 0.003125	-0.026793
									CHANNELS 3 Zrotation Xrotation Yrotation
									JOINT RightLittleIntermediate
									{
										OFFSET	-0.031398	-0.000273	 0.000023
										CHANNELS 3 Zrotation Xrotation Yrotation
										JOINT RightLittleDistal
										{
											OFFSET	-0.018059	 0.000679	-0.000943
											CHANNELS 3 Zrotation Xrotation Yrotation
											End Site
											{
												OFFSET	-0.018059	 0.000679	-0.000943
											}
										}
									}
								}
								JOINT RightMiddleProximal
								{
									OFFSET	-0.066112	 0.008373	 0.004780
									CHANNELS 3 Zrotation Xrotation Yrotation
									JOINT RightMiddleIntermediate
									{
										OFFSET	-0.036901	-0.001349	 0.002438
										CHANNELS 3 Zrotation Xrotation Yrotation
										JOINT RightMiddleDistal
										{
											OFFSET	-0.022683	-0.002405	 0.000937
											CHANNELS 3 Zrotation Xrotation Yrotation
											End Site
											{
												OFFSET	-0.022683	-0.002405	 0.000937
											}
										}
									}
								}
								JOINT RightRingProximal
								{
									OFFSET	-0.066681	 0.008306	-0.010961
									CHANNELS 3 Zrotation Xrotation Yrotation
									JOINT RightRingIntermediate
									{
										OFFSET	-0.034323	-0.000538	 0.000173
										CHANNELS 3 Zrotation Xrotation Yrotation
										JOINT RightRingDistal
										{
											OFFSET	-0.019796	 0.000700	 0.000249
											CHANNELS 3 Zrotation Xrotation Yrotation
											End Site
											{
												OFFSET	-0.019796	 0.000700	 0.000249
											}
										}
									}
								}
								JOINT RightThumbProximal
								{
									OFFSET	-0.002032	-0.006912	 0.017734
									CHANNELS 3 Zrotation Xrotation Yrotation
									JOINT RightThumbIntermediate
									{
										OFFSET	-0.032277	-0.002678	 0.033413
										CHANNELS 3 Zrotation Xrotation Yrotation
										JOINT RightThumbDistal
										{
											OFFSET	-0.021319	-0.001499	 0.019040
											CHANNELS 3 Zrotation Xrotation Yrotation
											End Site
											{
												OFFSET	-0.021319	-0.001499	 0.019040
											}
										}
									}
								}
							}
						}
					}
				}
			}
		}
	}
	JOINT LeftUpperLeg
	{
		OFFSET	 0.077122	-0.039702	-0.004909
		CHANNELS 3 Zrotation Xrotation Yrotation
		JOINT LeftLowerLeg
		{
			OFFSET	-0.019634	-0.342480	-0.006634
			CHANNELS 3 Zrotation Xrotation Yrotation
			JOINT LeftFoot
			{
				OFFSET	-0.010011	-0.401580	-0.020943
				CHANNELS 3 Zrotation Xrotation Yrotation
				JOINT LeftToes
				{
					OFFSET	 0.001443	-0.064447	 0.110538
					CHANNELS 3 Zrotation Xrotation Yrotation
					End Site
					{
						OFFSET	 0.001443	-0.064447	 0.110538
					}
				}
			}
		}
	}
	JOINT RightUpperLeg
	{
		OFFSET	-0.077122	-0.039702	-0.004909
		CHANNELS 3 Zrotation Xrotation Yrotation
		JOINT RightLowerLeg
		{
			OFFSET	 0.019634	-0.342480	-0.006634
			CHANNELS 3 Zrotation Xrotation Yrotation
			JOINT RightFoot
			{
				OFFSET	 0.010012	-0.401580	-0.020943
				CHANNELS 3 Zrotation Xrotation Yrotation
				JOINT RightToes
				{
					OFFSET	-0.001442	-0.064447	 0.110538
					CHANNELS 3 Zrotation Xrotation Yrotation
					End Site
					{
						OFFSET	-0.001442	-0.064447	 0.110538
					}
				}
			}
		}
	}
}
MOTION
Frames: 5
Frame Time: 0.041667
 0.028312	 0.785791	-0.668717	 2.478233	-2.509462	 5.609142	 3.682208	-2.259765	 1.038002	 3.623381	 16.569760	-0.287553	 0.000000	 0.000000	 0.000000	-3.432101	-15.641340	-0.728367	-3.679208	-0.538618	-6.506962	 0.000000	 0.000000	 0.000000	 0.000000	 0.000000	 0.000000	 3.983891	-16.389690	 7.905807	-58.547620	 19.059180	-5.475346	-37.958100	-67.542020	-111.209100	 18.078290	 42.121620	-15.204740	 0.000000	 0.000000	 0.000000	 0.000000	 0.000000	 0.000000	 0.000000	 0.000000	 0.000000	 0.000000	 0.000000	 0.000000	 0.000000	 0.000000	 0.000000	 0.000000	 0.000000	 0.000000	 0.000000	 0.000000	 0.000000	 0.000000	 0.000000	 0.000000	 0.000000	 0.000000	 0.000000	 0.000000	 0.000000	 0.000000	 0.000000	 0.000000	 0.000000	 0.000000	 0.000000	 0.000000	 0.000000	 0.000000	 0.000000	 0.000000	 0.000000	 0.000000	 0.000000	 0.000000	 0.000000	-16.626550	-15.974450	-10.284610	 63.595920	 13.005750	-4.608325	-21.930170	-40.362630	 4.751494	-11.572530	 6.129828	-1.817822	 0.000000	 0.000000	 0.000000	 0.000000	 0.000000	 0.000000	 0.000000	 0.000000	 0.000000	 0.000000	 0.000000	 0.000000	 0.000000	 0.000000	 0.000000	 0.000000	 0.000000	 0.000000	 0.000000	 0.000000	 0.000000	 0.000000	 0.000000	 0.000000	 0.000000	 0.000000	 0.000000	 0.000000	 0.000000	 0.000000	 0.000000	 0.000000	 0.000000	 0.000000	 0.000000	 0.000000	 0.000000	 0.000000	 0.000000	 0.000000	 0.000000	 0.000000	 0.000000	 0.000000	 0.000000	-7.663678	-7.530365	-1.200174	 5.001623	 20.053590	-17.214420	 6.137661	-18.175790	 15.353480	 0.000000	 0.000000	 0.000000	-11.482570	-14.768890	-2.402221	-10.377010	 34.947790	 21.806190	-7.377697	-11.318980	-25.980280	 0.000000	 0.000000	 0.000000
 0.031015	 0.785640	-0.679470	 3.655019	-2.121034	 4.024213	 2.158212	-2.256279	-0.235058	 2.294792	 16.673620	-0.179192	 0.000000	 0.000000	 0.000000	-2.641869	-16.186820	-0.554573	-3.421939	-0.634471	-4.957545	 0.000000	 0.000000	 0.000000	 0.000000	 0.000000	 0.000000	 4.141487	-16.433850	 7.044974	-63.380920	 18.101370	-2.581751	-24.349600	-67.851160	-92.337040	 16.490880	 40.512770	-13.187260	 0.000000	 0.000000	 0.000000	 0.000000	 0.000000	 0.000000	 0.000000	 0.000000	 0.000000	 0.000000	 0.000000	 0.000000	 0.000000	 0.000000	 0.000000	 0.000000	 0.000000	 0.000000	 0.000000	 0.000000	 0.000000	 0.000000	 0.000000	 0.000000	 0.000000	 0.000000	 0.000000	 0.000000	 0.000000	 0.000000	 0.000000	 0.000000	 0.000000	 0.000000	 0.000000	 0.000000	 0.000000	 0.000000	 0.000000	 0.000000	 0.000000	 0.000000	 0.000000	 0.000000	 0.000000	-16.227530	-16.027130	-9.401500	 70.997050	 12.943790	-4.744300	-16.981730	-33.795290	 5.947915	-10.445860	 2.197842	-1.434829	 0.000000	 0.000000	 0.000000	 0.000000	 0.000000	 0.000000	 0.000000	 0.000000	 0.000000	 0.000000	 0.000000	 0.000000	 0.000000	 0.000000	 0.000000	 0.000000	 0.000000	 0.000000	 0.000000	 0.000000	 0.000000	 0.000000	 0.000000	 0.000000	 0.000000	 0.000000	 0.000000	 0.000000	 0.000000	 0.000000	 0.000000	 0.000000	 0.000000	 0.000000	 0.000000	 0.000000	 0.000000	 0.000000	 0.000000	 0.000000	 0.000000	 0.000000	 0.000000	 0.000000	 0.000000	-9.300094	-7.953888	-1.455533	 4.525219	 19.687090	-15.615740	 5.856024	-16.939700	 15.498660	 0.000000	 0.000000	 0.000000	-9.009933	-17.020580	-2.145781	-12.960540	 39.120420	 23.865850	-7.289666	-9.343451	-29.030850	 0.000000	 0.000000	 0.000000
 0.032669	 0.784501	-0.690171	 5.203737	-1.324817	 1.978954	 0.376128	-2.613806	-1.429562	 0.683866	 16.349130	-0.015462	 0.000000	 0.000000	 0.000000	-1.904844	-16.398890	-0.397489	-3.054741	-0.738435	-2.340275	 0.000000	 0.000000	 0.000000	 0.000000	 0.000000	 0.000000	 4.623859	-16.259690	 6.446121	-69.256390	 17.192770	 0.040614	 0.888880	-62.164730	-58.255380	 9.503058	 35.713290	-7.171364	 0.000000	 0.000000	 0.000000	 0.000000	 0.000000	 0.000000	 0.000000	 0.000000	 0.000000	 0.000000	 0.000000	 0.000000	 0.000000	 0.000000	 0.000000	 0.000000	 0.000000	 0.000000	 0.000000	 0.000000	 0.000000	 0.000000	 0.000000	 0.000000	 0.000000	 0.000000	 0.000000	 0.000000	 0.000000	 0.000000	 0.000000	 0.000000	 0.000000	 0.000000	 0.000000	 0.000000	 0.000000	 0.000000	 0.000000	 0.000000	 0.000000	 0.000000	 0.000000	 0.000000	 0.000000	-15.536920	-15.886100	-8.629263	 78.596300	 13.000510	-5.027633	-11.185860	-26.989300	 7.173312	-8.208954	-1.017641	 0.956402	 0.000000	 0.000000	 0.000000	 0.000000	 0.000000	 0.000000	 0.000000	 0.000000	 0.000000	 0.000000	 0.000000	 0.000000	 0.000000	 0.000000	 0.000000	 0.000000	 0.000000	 0.000000	 0.000000	 0.000000	 0.000000	 0.000000	 0.000000	 0.000000	 0.000000	 0.000000	 0.000000	 0.000000	 0.000000	 0.000000	 0.000000	 0.000000	 0.000000	 0.000000	 0.000000	 0.000000	 0.000000	 0.000000	 0.000000	 0.000000	 0.000000	 0.000000	 0.000000	 0.000000	 0.000000	-11.100240	-8.873435	-1.855167	 3.984905	 19.615610	-13.878520	 5.586004	-15.597490	 15.789740	 0.000000	 0.000000	 0.000000	-6.677055	-18.938910	-1.710394	-15.325790	 42.365450	 25.800980	-7.084199	-8.195887	-30.613130	 0.000000	 0.000000	 0.000000
 0.033250	 0.782031	-0.699295	 6.720419	-0.384872	-0.358994	-1.318675	-3.108850	-2.691446	-0.805574	 15.812560	 0.131304	 0.000000	 0.000000	 0.000000	-1.374059	-16.355450	-0.282497	-2.679302	-1.042046	 1.246426	 0.000000	 0.000000	 0.000000	 0.000000	 0.000000	 0.000000	 5.404196	-15.976290	 6.146180	-75.662570	 17.588520	 1.162312	 21.241890	-38.971610	-26.806240	-3.774297	 26.247360	 1.789459	 0.000000	 0.000000	 0.000000	 0.000000	 0.000000	 0.000000	 0.000000	 0.000000	 0.000000	 0.000000	 0.000000	 0.000000	 0.000000	 0.000000	 0.000000	 0.000000	 0.000000	 0.000000	 0.000000	 0.000000	 0.000000	 0.000000	 0.000000	 0.000000	 0.000000	 0.000000	 0.000000	 0.000000	 0.000000	 0.000000	 0.000000	 0.000000	 0.000000	 0.000000	 0.000000	 0.000000	 0.000000	 0.000000	 0.000000	 0.000000	 0.000000	 0.000000	 0.000000	 0.000000	 0.000000	-14.614480	-15.652070	-8.049249	 85.842890	 12.611620	-5.946237	-6.129281	-16.927030	 8.028376	-5.142221	-0.269083	 3.429905	 0.000000	 0.000000	 0.000000	 0.000000	 0.000000	 0.000000	 0.000000	 0.000000	 0.000000	 0.000000	 0.000000	 0.000000	 0.000000	 0.000000	 0.000000	 0.000000	 0.000000	 0.000000	 0.000000	 0.000000	 0.000000	 0.000000	 0.000000	 0.000000	 0.000000	 0.000000	 0.000000	 0.000000	 0.000000	 0.000000	 0.000000	 0.000000	 0.000000	 0.000000	 0.000000	 0.000000	 0.000000	 0.000000	 0.000000	 0.000000	 0.000000	 0.000000	 0.000000	 0.000000	 0.000000	-12.563240	-10.204090	-2.353860	 3.215352	 19.994060	-11.887400	 5.355043	-14.582010	 15.965740	 0.000000	 0.000000	 0.000000	-4.529043	-20.252010	-1.146150	-16.626220	 44.130190	 26.813670	-7.314874	-8.061062	-31.709740	 0.000000	 0.000000	 0.000000
 0.032961	 0.777186	-0.707042	 8.040807	 0.378136	-3.145413	-2.786726	-3.579304	-3.796308	-2.106936	 15.220770	 0.237266	 0.000000	 0.000000	 0.000000	-0.963546	-16.006810	-0.188096	-2.362140	-1.664910	 5.454276	 0.000000	 0.000000	 0.000000	 0.000000	 0.000000	 0.000000	 6.568291	-15.663900	 6.446494	-82.021920	 20.568600	 0.617297	 26.035830	 7.915213	-14.121830	-8.821994	 9.541374	-1.429845	 0.000000	 0.000000	 0.000000	 0.000000	 0.000000	 0.000000	 0.000000	 0.000000	 0.000000	 0.000000	 0.000000	 0.000000	 0.000000	 0.000000	 0.000000	 0.000000	 0.000000	 0.000000	 0.000000	 0.000000	 0.000000	 0.000000	 0.000000	 0.000000	 0.000000	 0.000000	 0.000000	 0.000000	 0.000000	 0.000000	 0.000000	 0.000000	 0.000000	 0.000000	 0.000000	 0.000000	 0.000000	 0.000000	 0.000000	 0.000000	 0.000000	 0.000000	 0.000000	 0.000000	 0.000000	-13.481190	-15.410920	-7.925453	 92.300610	 10.916010	-7.851065	-4.497041	 5.391289	 10.744980	-2.817722	 0.143534	 4.101680	 0.000000	 0.000000	 0.000000	 0.000000	 0.000000	 0.000000	 0.000000	 0.000000	 0.000000	 0.000000	 0.000000	 0.000000	 0.000000	 0.000000	 0.000000	 0.000000	 0.000000	 0.000000	 0.000000	 0.000000	 0.000000	 0.000000	 0.000000	 0.000000	 0.000000	 0.000000	 0.000000	 0.000000	 0.000000	 0.000000	 0.000000	 0.000000	 0.000000	 0.000000	 0.000000	 0.000000	 0.000000	 0.000000	 0.000000	 0.000000	 0.000000	 0.000000	 0.000000	 0.000000	 0.000000	-13.370330	-11.342980	-2.754178	 2.031415	 20.218280	-8.731312	 4.917184	-14.122480	 15.032410	 0.000000	 0.000000	 0.000000	-2.747163	-20.588610	-0.575423	-16.602380	 44.036140	 26.820360	-8.180291	-8.738676	-33.139240	 0.000000	 0.000000	 0.000000
